<?xml version="1.0" encoding="UTF-8" standalone="no"?>
<svg
   fill="none"
   height="128"
   viewBox="0 0 128 128"
   width="128"
   version="1.1"
   id="svg6"
   sodipodi:docname="ts-logo-128.svg"
   inkscape:export-filename="AirshipScriptIcon.png"
   inkscape:export-xdpi="96"
   inkscape:export-ydpi="96"
   inkscape:version="1.2.1 (9c6d41e410, 2022-07-14)"
   xml:space="preserve"
   xmlns:inkscape="http://www.inkscape.org/namespaces/inkscape"
   xmlns:sodipodi="http://sodipodi.sourceforge.net/DTD/sodipodi-0.dtd"
   xmlns="http://www.w3.org/2000/svg"
   xmlns:svg="http://www.w3.org/2000/svg"><defs
     id="defs10" /><sodipodi:namedview
     id="namedview8"
     pagecolor="#ffffff"
     bordercolor="#111111"
     borderopacity="1"
     inkscape:showpageshadow="0"
     inkscape:pageopacity="0"
     inkscape:pagecheckerboard="1"
     inkscape:deskcolor="#d1d1d1"
     showgrid="true"
     inkscape:zoom="9.515625"
     inkscape:cx="77.34647"
     inkscape:cy="65.155993"
     inkscape:window-width="3440"
     inkscape:window-height="1369"
     inkscape:window-x="2552"
     inkscape:window-y="-8"
     inkscape:window-maximized="1"
     inkscape:current-layer="layer4"><inkscape:page
       x="0"
       y="0"
       width="128"
       height="128"
       id="page6728"
       inkscape:label="AirshipScriptIcon"
       inkscape:export-filename=".\AirshipScriptIcon.png"
       inkscape:export-xdpi="96"
       inkscape:export-ydpi="96" /><inkscape:grid
       type="xygrid"
       id="grid1531"
       spacingx="8"
       spacingy="8"
       originx="0"
       originy="0" /><inkscape:page
       x="136"
       y="0"
       width="128"
       height="128"
       id="page6730"
       inkscape:label="TypescriptAssetDeclaration" /><inkscape:page
       x="272"
       y="0"
       width="128"
       height="128"
       id="page6734"
       inkscape:label="LuauAssetIcon" /><inkscape:page
       x="408"
       y="0"
       width="128"
       height="128"
       id="page6736"
       inkscape:label="TypescriptAsset" /></sodipodi:namedview><g
     inkscape:groupmode="layer"
     id="layer1"
     inkscape:label="ScriptBinding"
     style="display:inline"><g
       id="g6238"
       inkscape:label="ScriptBinding"><path
         id="rect963-6-8-6"
         style="fill:#3178c6;fill-opacity:1;stroke-width:10.0836"
         d="m 16,8 v 112 h 96 V 104.51812 64.925378 24 l -8,-8 -8,-8 z"
         sodipodi:nodetypes="ccccccccc" /><path
         style="fill:none;fill-opacity:1;stroke-width:0.948"
         d="m 72,104 h 32 V 24 H 24 v 80 z"
         id="path4731" /><rect
         style="opacity:0.99;fill:#1e4b7d;fill-opacity:1;stroke:none;stroke-width:4;stroke-dasharray:none;stroke-opacity:1"
         id="rect5201-0"
         width="32"
         height="8"
         x="24"
         y="32" /><rect
         style="opacity:0.99;fill:#1e4b7d;fill-opacity:1;stroke:none;stroke-width:5.65685;stroke-dasharray:none;stroke-opacity:1"
         id="rect5201-0-2"
         width="64"
         height="8"
         x="24"
         y="48" /><rect
         style="opacity:0.99;fill:#1e4b7d;fill-opacity:1;stroke:none;stroke-width:5.29151;stroke-dasharray:none;stroke-opacity:1"
         id="rect5201-0-2-4"
         width="56"
         height="8"
         x="24"
         y="64" /><rect
         style="opacity:0.99;fill:#1e4b7d;fill-opacity:1;stroke:none;stroke-width:4.47214;stroke-dasharray:none;stroke-opacity:1"
         id="rect5201-0-2-4-8"
         width="40"
         height="8"
         x="24"
         y="80" /><rect
         style="opacity:0.99;fill:#1e4b7d;fill-opacity:1;stroke:none;stroke-width:6.32456;stroke-dasharray:none;stroke-opacity:1"
         id="rect5201-0-2-4-8-8"
         width="80"
         height="8"
         x="24"
         y="96" /><text
         xml:space="preserve"
         style="font-style:italic;font-variant:normal;font-weight:bold;font-stretch:normal;font-size:78.9685px;font-family:Consolas;-inkscape-font-specification:'Consolas Bold Italic';text-align:end;text-anchor:end;fill:#ffffff;fill-opacity:1;stroke:none;stroke-width:4.11297;stroke-dasharray:none;stroke-opacity:1"
         x="135.54716"
         y="101.22981"
         id="text7520-4"
         transform="scale(0.91175599,1.0967847)"><tspan
           sodipodi:role="line"
           id="tspan7518-8"
           x="135.54716"
           y="101.22981"
           style="font-style:normal;font-variant:normal;font-weight:bold;font-stretch:normal;font-family:Consolas;-inkscape-font-specification:'Consolas Bold';stroke-width:4.11297">&lt;&gt;</tspan></text></g></g><g
     inkscape:groupmode="layer"
     id="layer2"
     inkscape:label="Lua"
     style="display:inline"><g
       id="g6170"
       inkscape:label="Lua/Luau"
       transform="translate(472,8)"><g
         id="g312"
         transform="translate(-200,-8)"><path
           id="rect963-6-8"
           style="fill:#00a2ff;fill-opacity:1;stroke-width:10.8915"
           d="M 8.000003,8 V 120 H 120 V 8 Z" /><rect
           style="fill:#ffffff;fill-opacity:1;stroke:none;stroke-width:4.99999;stroke-dasharray:none;stroke-opacity:1"
           id="rect5448"
           width="24"
           height="24"
           x="88"
           y="16" /><text
           xml:space="preserve"
           style="font-style:italic;font-variant:normal;font-weight:bold;font-stretch:normal;font-size:61.4347px;font-family:Consolas;-inkscape-font-specification:'Consolas Bold Italic';text-align:end;text-anchor:end;fill:#ffffff;fill-opacity:1;stroke:none;stroke-width:3.19972;stroke-dasharray:none;stroke-opacity:1"
           x="120.29235"
           y="107.38955"
           id="text7520"
           transform="scale(0.96499547,1.0362743)"><tspan
             sodipodi:role="line"
             id="tspan7518"
             x="120.29234"
             y="107.38955"
             style="font-style:normal;font-variant:normal;font-weight:bold;font-stretch:normal;font-family:Consolas;-inkscape-font-specification:'Consolas Bold';stroke-width:3.19972">Lua</tspan></text></g></g></g><g
     inkscape:groupmode="layer"
     id="layer3"
     inkscape:label="TypescriptDeclaration"
     style="display:inline"><g
       id="g6175"
       inkscape:label="TypescriptDeclaration"
       transform="translate(3.29014,184.32828)"><path
         id="rect963"
         style="fill:#3a9268;fill-opacity:1;stroke-width:10.8915"
         d="m 140.70986,-176.32828 v 112 h 112 v -74 h -73.44922 c -0.33715,0 -0.36425,-0.49917 -0.60742,-0.81055 l -15.33399,-19.63476 c -0.18586,-0.23799 8.98423,-11.99743 13.48828,-17.55469 z"
         sodipodi:nodetypes="ccccscccc" /><path
         clip-rule="evenodd"
         d="m 210.51982,-84.978593 v 10.987313 c 1.7801,0.91496 3.88528,1.60195 6.31579,2.05943 2.43051,0.45827 4.99216,0.68701 7.68509,0.68701 2.62447,0 5.11765,-0.25146 7.4793,-0.75516 2.3626,-0.50369 4.433,-1.33327 6.21356,-2.4895 1.77979,-1.15622 3.18904,-2.66653 4.22777,-4.53247 1.03794,-1.86517 1.5573,-4.17135 1.5573,-6.918033 0,-1.991361 -0.29689,-3.736672 -0.88989,-5.236011 -0.59378,-1.49926 -1.44919,-2.832527 -2.56783,-3.999959 -1.11784,-1.167352 -2.45894,-2.21454 -4.02173,-3.141561 -1.56357,-0.92702 -3.32614,-1.802576 -5.28922,-2.626586 -1.43761,-0.59511 -2.727,-1.17307 -3.86804,-1.73387 -1.14111,-0.56081 -2.11098,-1.13304 -2.90969,-1.71672 -0.79878,-0.58376 -1.41497,-1.20174 -1.84855,-1.85412 -0.43359,-0.6523 -0.65042,-1.39053 -0.65042,-2.21454 0,-0.75539 0.19396,-1.43636 0.58195,-2.04291 0.388,-0.60655 0.93572,-1.12732 1.64316,-1.56224 0.70745,-0.43484 1.57462,-0.77246 2.6016,-1.0128 1.02698,-0.24041 2.16801,-0.36058 3.42317,-0.36058 0.91324,0 1.87677,0.0687 2.89278,0.20603 1.01523,0.13732 2.03672,0.34906 3.0637,0.63522 1.02697,0.28608 2.02497,0.64658 2.99554,1.0815 0.96978,0.43491 1.86516,0.93845 2.68691,1.51069 v -10.26592 c -1.6662,-0.64094 -3.48593,-1.11589 -5.45997,-1.42492 -1.97406,-0.30904 -4.23875,-0.46351 -6.79514,-0.46351 -2.6016,0 -5.06626,0.28036 -7.39407,0.84116 -2.32774,0.5608 -4.37597,1.43636 -6.14463,2.62659 -1.76865,1.1903 -3.16647,2.70672 -4.19337,4.54932 -1.02697,1.8426 -1.54046,4.04571 -1.54046,6.60939 0,3.27324 0.94135,6.06574 2.82414,8.377574 1.88279,2.311911 4.74109,4.268962 8.57506,5.871234 1.50623,0.617987 2.90977,1.224616 4.21052,1.81973 1.30084,0.595113 2.4248,1.213101 3.37188,1.854041 0.94706,0.640939 1.69422,1.339065 2.24179,2.094373 0.54835,0.755388 0.82174,1.613705 0.82174,2.575115 0,0.709883 -0.17077,1.367893 -0.5131,1.974203 -0.34233,0.60632 -0.86169,1.13273 -1.55769,1.57924 -0.69609,0.44651 -1.56327,0.79589 -2.60168,1.04734 -1.03833,0.25146 -2.25355,0.37758 -3.64565,0.37758 -2.37348,0 -4.72401,-0.41753 -7.05182,-1.25336 -2.32774,-0.83506 -4.48431,-2.08841 -6.4698,-3.759313 z m -18.45549,-27.349687 h 14.33333 v -9.05118 h -39.95102 v 9.05118 h 14.26322 v 40.30009 h 11.35447 z"
         fill="#ffffff"
         fill-rule="evenodd"
         id="path4"
         style="stroke-width:0.78335" /><path
         id="rect2464"
         style="fill:#ffffff;fill-opacity:1;stroke-width:0.633274"
         d="m 191.7079,-180.09781 c -0.29493,0 -14.15804,17.61238 -13.94531,17.88476 l 13.41406,17.17579 c 0.21273,0.27238 0.23632,0.70898 0.53125,0.70898 h 66.00391 c 0.29494,0 0.53125,-0.31573 0.53125,-0.70898 v -34.35157 c 0,-0.39325 -0.23631,-0.70898 -0.53125,-0.70898 z m 45.63673,9.76953 h 14.73046 c 0.35181,0 0.63477,0.28296 0.63477,0.63477 v 14.73046 c 0,0.35181 -0.28296,0.63477 -0.63477,0.63477 h -14.73046 c -0.35181,0 -0.63477,-0.28296 -0.63477,-0.63477 v -14.73046 c 0,-0.35181 0.28296,-0.63477 0.63477,-0.63477 z" /></g></g><g
     inkscape:groupmode="layer"
     id="layer4"
     inkscape:label="Typescript"
     style="display:inline"><g
       id="g6163"
       inkscape:label="Typescript"
       transform="translate(587.35447,160)"><path
         id="rect963-6"
         style="fill:#3178c6;fill-opacity:1;stroke-width:10.8915"
         d="M -171.35447,-152 V -40 H -59.354473 V -152 Z" /><path
         clip-rule="evenodd"
         d="M -101.54451,-60.65031 V -49.663 c 1.780096,0.91496 3.88528,1.60195 6.315791,2.05943 2.43051,0.45827 4.992155,0.68701 7.685089,0.68701 2.624469,0 5.11765,-0.25146 7.4793,-0.75516 2.362597,-0.50369 4.432997,-1.33327 6.213557,-2.4895 1.77979,-1.15622 3.18904,-2.66653 4.22777,-4.53247 1.03794,-1.86517 1.5573,-4.17135 1.5573,-6.91803 0,-1.99136 -0.29689,-3.73667 -0.88989,-5.23601 -0.59378,-1.49926 -1.44919,-2.83253 -2.56783,-3.99996 -1.11784,-1.16735 -2.45894,-2.21454 -4.02173,-3.14156 -1.56357,-0.92702 -3.32614,-1.80258 -5.289217,-2.626587 -1.43761,-0.595114 -2.727,-1.173072 -3.868036,-1.733875 -1.141112,-0.560803 -2.110983,-1.133042 -2.909689,-1.716719 -0.798786,-0.583754 -1.414971,-1.201742 -1.848557,-1.854119 -0.433587,-0.652298 -0.650419,-1.390531 -0.650419,-2.21454 0,-0.755388 0.193958,-1.436358 0.581953,-2.042908 0.387995,-0.60655 0.935715,-1.127324 1.643162,-1.562241 0.707446,-0.434841 1.574619,-0.772465 2.601596,-1.012799 1.026976,-0.240411 2.16801,-0.360578 3.42317,-0.360578 0.91324,0 1.87677,0.0687 2.892777,0.206023 1.01523,0.137321 2.03672,0.349062 3.0637,0.635221 1.02697,0.286081 2.02497,0.64658 2.99554,1.081498 0.96978,0.434918 1.86516,0.938458 2.68691,1.510696 v -10.265924 c -1.6662,-0.64094 -3.48593,-1.115887 -5.45997,-1.42492 -1.97406,-0.309033 -4.238747,-0.46351 -6.795137,-0.46351 -2.601595,0 -5.06626,0.280363 -7.394073,0.841164 -2.327735,0.560803 -4.375969,1.436357 -6.144624,2.626585 -1.768656,1.190306 -3.166473,2.706721 -4.193373,4.549326 -1.02697,1.842602 -1.54046,4.045706 -1.54046,6.609387 0,3.273242 0.94135,6.065741 2.824144,8.37757 1.88279,2.31191 4.74109,4.26897 8.575057,5.87124 1.506232,0.61798 2.909766,1.22461 4.210524,1.81973 1.300837,0.59511 2.424792,1.2131 3.371875,1.85404 0.94706,0.64094 1.69422,1.33906 2.24179,2.09437 0.54835,0.75539 0.82174,1.61371 0.82174,2.57512 0,0.70988 -0.17077,1.36789 -0.5131,1.9742 -0.34233,0.60632 -0.86169,1.13273 -1.55769,1.57924 -0.69609,0.44651 -1.56327,0.79589 -2.601681,1.04734 -1.038331,0.25146 -2.253547,0.37758 -3.645644,0.37758 -2.373483,0 -4.724013,-0.41753 -7.051827,-1.25336 -2.327734,-0.83506 -4.484307,-2.08841 -6.469798,-3.75931 z M -120,-88 h 14.33333 v -9.051179 h -39.95102 V -88 h 14.26322 v 40.30009 H -120 Z"
         fill="#ffffff"
         fill-rule="evenodd"
         id="path4-1"
         style="stroke-width:0.78335" /></g></g></svg>
