<?xml version="1.0" encoding="UTF-8" standalone="no"?>
<svg
   fill="none"
   height="128"
   viewBox="0 0 128 128"
   width="128"
   version="1.1"
   id="svg6"
   sodipodi:docname="ts-logo-128.svg"
   inkscape:export-filename="TypescriptOff.png"
   inkscape:export-xdpi="12"
   inkscape:export-ydpi="12"
   inkscape:version="1.2.1 (9c6d41e410, 2022-07-14)"
   xmlns:inkscape="http://www.inkscape.org/namespaces/inkscape"
   xmlns:sodipodi="http://sodipodi.sourceforge.net/DTD/sodipodi-0.dtd"
   xmlns="http://www.w3.org/2000/svg"
   xmlns:svg="http://www.w3.org/2000/svg">
  <defs
     id="defs10" />
  <sodipodi:namedview
     id="namedview8"
     pagecolor="#ffffff"
     bordercolor="#111111"
     borderopacity="1"
     inkscape:showpageshadow="0"
     inkscape:pageopacity="0"
     inkscape:pagecheckerboard="1"
     inkscape:deskcolor="#d1d1d1"
     showgrid="false"
     inkscape:zoom="4.2148438"
     inkscape:cx="107.00278"
     inkscape:cy="88.496756"
     inkscape:window-width="2560"
     inkscape:window-height="1369"
     inkscape:window-x="3432"
     inkscape:window-y="-8"
     inkscape:window-maximized="1"
     inkscape:current-layer="svg6" />
  <rect
     fill="#3178c6"
     height="118.40984"
     rx="5.5504608"
     width="118.40984"
     id="rect2"
     style="fill:none;fill-opacity:1;stroke:#cecece;stroke-width:4.62538;stroke-dasharray:none;stroke-opacity:1"
     x="4.795083"
     y="4.795083" />
  <path
     clip-rule="evenodd"
     d="m 70.847264,80.704716 v 13.340281 c 2.161303,1.110899 4.717318,1.945014 7.66833,2.500465 2.951011,0.556402 6.061239,0.834131 9.330871,0.834131 3.186507,0 6.213604,-0.30531 9.081016,-0.916874 2.868547,-0.611566 5.382329,-1.618793 7.544199,-3.022636 2.16093,-1.403833 3.87198,-3.237574 5.13316,-5.503119 1.26021,-2.264596 1.8908,-5.064668 1.8908,-8.399547 0,-2.41782 -0.36047,-4.536894 -1.08047,-6.35732 -0.72093,-1.820331 -1.75954,-3.439121 -3.11773,-4.856562 -1.35724,-1.417344 -2.98553,-2.68879 -4.88299,-3.814335 -1.89843,-1.125543 -4.038435,-2.1886 -6.421919,-3.189073 -1.745473,-0.722559 -3.310999,-1.424289 -4.696385,-2.105189 -1.385485,-0.6809 -2.563056,-1.375686 -3.532808,-2.084358 -0.969847,-0.708768 -1.717991,-1.459099 -2.24443,-2.251184 -0.52644,-0.79199 -0.789708,-1.688318 -0.789708,-2.68879 0,-0.917156 0.235495,-1.743958 0.70658,-2.480403 0.471086,-0.736444 1.136101,-1.368743 1.99505,-1.896799 0.858947,-0.527963 1.911828,-0.937891 3.158734,-1.229692 1.246906,-0.291896 2.632291,-0.437797 4.156254,-0.437797 1.108814,0 2.278677,0.08341 3.512268,0.250143 1.232632,0.16673 2.472884,0.423815 3.719794,0.771256 1.2469,0.347346 2.45862,0.785047 3.63704,1.313103 1.17747,0.528057 2.2646,1.139431 3.26232,1.834216 V 37.850234 c -2.02302,-0.7782 -4.23245,-1.354858 -6.62924,-1.730071 -2.39681,-0.375213 -5.146468,-0.562772 -8.250326,-0.562772 -3.158729,0 -6.151209,0.340403 -8.977529,1.021302 -2.826226,0.6809 -5.313095,1.743957 -7.460512,3.189075 -2.147418,1.445213 -3.844581,3.286373 -5.091392,5.523576 -1.246906,2.237201 -1.870359,4.912106 -1.870359,8.024805 0,3.974216 1.14295,7.364737 3.428944,10.171655 2.285995,2.807013 5.756408,5.183172 10.411429,7.128575 1.828796,0.75033 3.5329,1.486871 5.11222,2.20943 1.579414,0.722558 2.944067,1.47289 4.093965,2.251089 1.149886,0.778198 2.057052,1.625829 2.721881,2.542889 0.665779,0.917156 0.99772,1.959285 0.99772,3.126582 0,0.861902 -0.207347,1.66083 -0.62299,2.396992 -0.41563,0.736161 -1.046216,1.375308 -1.891273,1.917439 -0.84516,0.542137 -1.89804,0.96633 -3.158832,1.271637 -1.260693,0.305305 -2.736151,0.458432 -4.42637,0.458432 -2.88177,0 -5.735672,-0.506941 -8.561994,-1.521772 -2.826224,-1.01389 -5.444634,-2.535661 -7.855318,-4.564381 z M 48.439475,47.498015 H 65.842328 V 36.508501 H 17.335681 V 47.498015 H 34.65341 v 48.93047 h 13.786065 z"
     fill="#ffffff"
     fill-rule="evenodd"
     id="path4"
     style="fill:#d8d8d8;fill-opacity:1;stroke-width:0.951323;stroke-dasharray:none" />
</svg>
