<?xml version="1.0" encoding="UTF-8" standalone="no"?>
<svg
   fill="none"
   height="128"
   viewBox="0 0 128 128"
   width="128"
   version="1.1"
   id="svg6"
   sodipodi:docname="ts-logo-128.svg"
   inkscape:export-filename="TypescriptOk.png"
   inkscape:export-xdpi="12"
   inkscape:export-ydpi="12"
   inkscape:version="1.2.1 (9c6d41e410, 2022-07-14)"
   xmlns:inkscape="http://www.inkscape.org/namespaces/inkscape"
   xmlns:sodipodi="http://sodipodi.sourceforge.net/DTD/sodipodi-0.dtd"
   xmlns="http://www.w3.org/2000/svg"
   xmlns:svg="http://www.w3.org/2000/svg">
  <defs
     id="defs10" />
  <sodipodi:namedview
     id="namedview8"
     pagecolor="#ffffff"
     bordercolor="#111111"
     borderopacity="1"
     inkscape:showpageshadow="0"
     inkscape:pageopacity="0"
     inkscape:pagecheckerboard="1"
     inkscape:deskcolor="#d1d1d1"
     showgrid="false"
     inkscape:zoom="4.2148438"
     inkscape:cx="107.00278"
     inkscape:cy="88.496756"
     inkscape:window-width="2560"
     inkscape:window-height="1369"
     inkscape:window-x="3432"
     inkscape:window-y="-8"
     inkscape:window-maximized="1"
     inkscape:current-layer="svg6" />
  <rect
     fill="#3178c6"
     height="120.40778"
     rx="5.644115"
     width="120.40778"
     id="rect2"
     x="3.7961075"
     y="3.7961075"
     style="stroke-width:0.940685" />
  <path
     clip-rule="evenodd"
     d="m 71.527909,82.21131 v 14.75206 c 2.39003,1.228463 5.216544,2.150851 8.479856,2.765085 3.263311,0.615285 6.702689,0.922405 10.318341,0.922405 3.523729,0 6.871179,-0.33762 10.042044,-1.013905 3.17212,-0.676287 5.95193,-1.790107 8.34259,-3.342516 2.38962,-1.552398 4.28174,-3.580201 5.67639,-6.085504 1.39358,-2.504255 2.0909,-5.600653 2.0909,-9.288457 0,-2.673693 -0.39862,-5.017025 -1.19481,-7.030104 -0.79723,-2.012973 -1.94575,-3.803077 -3.44768,-5.370523 -1.50087,-1.567339 -3.30148,-2.97334 -5.39975,-4.217999 -2.09933,-1.244658 -4.46581,-2.420216 -7.101535,-3.526567 -1.930193,-0.799027 -3.661396,-1.575019 -5.193395,-2.327978 -1.532108,-0.752958 -2.834299,-1.521272 -3.906678,-2.304942 -1.072485,-0.783775 -1.899803,-1.613513 -2.481955,-2.489423 -0.582152,-0.875804 -0.873281,-1.866989 -0.873281,-2.97334 0,-1.014217 0.260417,-1.928517 0.781356,-2.742899 0.52094,-0.814381 1.256333,-1.513595 2.206183,-2.097534 0.949848,-0.583836 2.114153,-1.037146 3.493017,-1.359828 1.378864,-0.322787 2.910862,-0.484128 4.596103,-0.484128 1.226158,0 2.519825,0.09224 3.883965,0.276615 1.36308,0.184374 2.73459,0.468666 4.11345,0.852876 1.37886,0.384105 2.71882,0.868127 4.02195,1.452067 1.30207,0.58394 2.50425,1.260015 3.60756,2.028328 V 34.821614 c -2.23711,-0.860555 -4.68036,-1.49824 -7.3308,-1.913161 -2.65046,-0.414921 -5.69111,-0.622329 -9.123444,-0.622329 -3.493011,0 -6.80218,0.376427 -9.927605,1.129384 -3.12532,0.752959 -5.87537,1.928517 -8.250045,3.526569 -2.374675,1.598158 -4.251446,3.634164 -5.630205,6.108127 -1.378863,2.47396 -2.068295,5.431945 -2.068295,8.874056 0,4.3948 1.263906,8.144134 3.791823,11.248103 2.527918,3.104074 6.365598,5.731698 11.513252,7.88298 2.022334,0.829736 3.906781,1.644223 5.653237,2.44325 1.746561,0.799025 3.255633,1.628763 4.527222,2.489317 1.271577,0.860554 2.274746,1.797888 3.009933,2.811999 0.736237,1.014217 1.103307,2.166633 1.103307,3.457463 0,0.953115 -0.22929,1.836592 -0.68892,2.650661 -0.459615,0.814068 -1.156935,1.520854 -2.091423,2.120358 -0.934602,0.599511 -2.098906,1.068595 -3.493126,1.406212 -1.39411,0.337615 -3.025713,0.506947 -4.894804,0.506947 -3.186743,0 -6.342669,-0.560589 -9.468095,-1.682818 -3.125319,-1.121188 -6.02083,-2.804006 -8.686633,-5.047422 z M 46.748744,45.490403 H 65.99331 V 33.337888 H 12.35329 v 12.152515 h 19.150434 v 54.108695 h 15.24502 z"
     fill="#ffffff"
     fill-rule="evenodd"
     id="path4"
     style="stroke-width:1.05176" />
</svg>
