<?xml version="1.0" encoding="UTF-8" standalone="no"?>
<svg
   fill="none"
   height="128"
   viewBox="0 0 128 128"
   width="128"
   version="1.1"
   id="svg6"
   sodipodi:docname="ts-logo-128.svg"
   inkscape:export-filename="TypescriptAsset.png"
   inkscape:export-xdpi="48"
   inkscape:export-ydpi="48"
   inkscape:version="1.2.1 (9c6d41e410, 2022-07-14)"
   xmlns:inkscape="http://www.inkscape.org/namespaces/inkscape"
   xmlns:sodipodi="http://sodipodi.sourceforge.net/DTD/sodipodi-0.dtd"
   xmlns="http://www.w3.org/2000/svg"
   xmlns:svg="http://www.w3.org/2000/svg">
  <defs
     id="defs10" />
  <sodipodi:namedview
     id="namedview8"
     pagecolor="#ffffff"
     bordercolor="#111111"
     borderopacity="1"
     inkscape:showpageshadow="0"
     inkscape:pageopacity="0"
     inkscape:pagecheckerboard="1"
     inkscape:deskcolor="#d1d1d1"
     showgrid="true"
     inkscape:zoom="4.2148438"
     inkscape:cx="106.05375"
     inkscape:cy="33.21594"
     inkscape:window-width="2560"
     inkscape:window-height="1369"
     inkscape:window-x="3432"
     inkscape:window-y="-8"
     inkscape:window-maximized="1"
     inkscape:current-layer="svg6">
    <inkscape:grid
       type="xygrid"
       id="grid1531"
       spacingx="8"
       spacingy="8" />
  </sodipodi:namedview>
  <path
     id="rect963"
     style="fill:#3178c6;fill-opacity:1;stroke-width:10.8915"
     d="M 8,8 V 120 H 120 V 8 Z" />
  <rect
     fill="#3178c6"
     height="115.71034"
     rx="0"
     width="115.71034"
     id="rect2"
     x="-227.07852"
     y="4.7212892"
     style="stroke-width:0.903986" />
  <path
     clip-rule="evenodd"
     d="M 77.809967,99.349687 V 110.337 c 1.780092,0.91496 3.885276,1.60195 6.315787,2.05943 2.43051,0.45827 4.992155,0.68701 7.685089,0.68701 2.624469,0 5.11765,-0.25146 7.4793,-0.75516 2.362597,-0.50369 4.432997,-1.33327 6.213557,-2.4895 1.77979,-1.15622 3.18904,-2.66653 4.22777,-4.53247 1.03794,-1.86517 1.5573,-4.17135 1.5573,-6.918033 0,-1.991361 -0.29689,-3.736672 -0.88989,-5.236011 -0.59378,-1.49926 -1.44919,-2.832527 -2.56783,-3.999959 -1.11784,-1.167352 -2.45894,-2.21454 -4.02173,-3.141561 -1.56357,-0.92702 -3.32614,-1.802574 -5.289217,-2.626583 -1.43761,-0.595114 -2.727,-1.173072 -3.868036,-1.733875 -1.141112,-0.560803 -2.110983,-1.133042 -2.909689,-1.716719 -0.798786,-0.583754 -1.414971,-1.201742 -1.848557,-1.854119 -0.433587,-0.652298 -0.650419,-1.390531 -0.650419,-2.21454 0,-0.755388 0.193958,-1.436358 0.581953,-2.042908 0.387995,-0.60655 0.935715,-1.127324 1.643162,-1.562241 0.707446,-0.434841 1.574619,-0.772465 2.601596,-1.012799 1.026976,-0.240411 2.16801,-0.360578 3.42317,-0.360578 0.91324,0 1.87677,0.0687 2.892777,0.206023 1.01523,0.137321 2.03672,0.349062 3.0637,0.635221 1.02697,0.286081 2.02497,0.64658 2.99554,1.081498 0.96978,0.434918 1.86516,0.938458 2.68691,1.510696 V 64.053898 c -1.6662,-0.64094 -3.48593,-1.115887 -5.45997,-1.42492 -1.97406,-0.309033 -4.238747,-0.46351 -6.795137,-0.46351 -2.601595,0 -5.06626,0.280363 -7.394073,0.841164 -2.327735,0.560803 -4.375969,1.436357 -6.144624,2.626585 -1.768656,1.190306 -3.166473,2.706721 -4.193371,4.549326 -1.026975,1.842602 -1.540463,4.045706 -1.540463,6.609387 0,3.273242 0.941355,6.065741 2.824145,8.377574 1.88279,2.311911 4.74109,4.268962 8.575057,5.871234 1.506232,0.617987 2.909766,1.224616 4.210524,1.81973 1.300837,0.595113 2.424792,1.213101 3.371875,1.854041 0.94706,0.640939 1.69422,1.339065 2.24179,2.094373 0.54835,0.755388 0.82174,1.613705 0.82174,2.575115 0,0.709883 -0.17077,1.367893 -0.5131,1.974203 -0.34233,0.60632 -0.86169,1.13273 -1.55769,1.57924 -0.69609,0.44651 -1.56327,0.79589 -2.601681,1.04734 -1.038331,0.25146 -2.253547,0.37758 -3.645644,0.37758 -2.373483,0 -4.724013,-0.41753 -7.051827,-1.25336 -2.327734,-0.83506 -4.484307,-2.08841 -6.469794,-3.759313 z M 59.354473,72 H 73.687804 V 62.948821 H 33.736778 V 72 H 48 v 40.30009 h 11.354473 z"
     fill="#ffffff"
     fill-rule="evenodd"
     id="path4"
     style="stroke-width:0.78335" />
</svg>
